<svg width="18" height="14" viewBox="0 0 18 14" fill="none" xmlns="http://www.w3.org/2000/svg">
<path d="M4.37501 0.195993C7.45286 -0.0653311 10.5481 -0.0653311 13.626 0.195993L15.1099 0.320719C15.5856 0.361273 16.0433 0.518469 16.4403 0.77775C16.8374 1.03703 17.1611 1.39001 17.3814 1.80399C17.4071 1.85508 17.4122 1.91375 17.3956 1.96834C17.3791 2.02292 17.3421 2.06941 17.292 2.09854L11.1384 5.82112C10.4908 6.21285 9.74575 6.42396 8.98407 6.43157C8.22238 6.43918 7.47309 6.243 6.81738 5.86429L0.623554 2.28755C0.574732 2.26058 0.537576 2.21723 0.518976 2.16554C0.500376 2.11384 0.501593 2.05732 0.522403 2.00643C0.723116 1.54155 1.04986 1.13899 1.46744 0.842109C1.88501 0.54523 2.37759 0.365291 2.8921 0.321679L4.37501 0.195993Z" fill="white"/>
<path d="M0.516554 3.89822C0.481463 3.87791 0.441714 3.86654 0.400953 3.86514C0.360192 3.86374 0.319725 3.87237 0.283264 3.89023C0.246803 3.90808 0.215517 3.9346 0.192276 3.96735C0.169035 4.00009 0.154583 4.03801 0.150247 4.07763C-0.0987652 6.49332 -0.0380629 8.92992 0.330945 11.3309C0.426376 11.946 0.730735 12.5118 1.19509 12.9374C1.65944 13.3631 2.25682 13.6238 2.89116 13.6777L4.37407 13.8034C7.45281 14.0653 10.5483 14.0653 13.627 13.8034L15.1099 13.6786C15.7445 13.6244 16.342 13.3632 16.8062 12.937C17.2704 12.5108 17.5744 11.9444 17.6691 11.329C18.0488 8.85808 18.102 6.34974 17.8272 3.8656C17.8225 3.82582 17.8075 3.78785 17.7838 3.75522C17.76 3.72259 17.7281 3.69635 17.6912 3.67894C17.6543 3.66152 17.6135 3.6535 17.5725 3.6556C17.5316 3.65771 17.4919 3.66988 17.457 3.69098L11.9133 7.04323C11.0373 7.57287 10.0297 7.8583 8.99956 7.86862C7.96942 7.87893 6.95603 7.61374 6.0691 7.10175L0.516554 3.89822Z" fill="white"/>
</svg>
