<svg width="20" height="20" viewBox="0 0 20 20" fill="none" xmlns="http://www.w3.org/2000/svg">
<path d="M6.48416 13.4866C8.90345 15.9055 11.8499 17.7723 14.252 17.7723C15.332 17.7723 16.2777 17.3955 17.0395 16.5584C17.4831 16.0645 17.7595 15.487 17.7595 14.918C17.7595 14.4995 17.6002 14.0977 17.1988 13.813L14.637 11.988C14.2438 11.7202 13.9174 11.5862 13.6159 11.5862C13.2309 11.5862 12.8959 11.8041 12.5109 12.1805L11.9167 12.7666C11.8326 12.8516 11.7183 12.8998 11.5988 12.9005C11.4649 12.9005 11.3474 12.8505 11.2556 12.8084C10.7449 12.5323 9.85773 11.7705 9.02881 10.9502C8.20845 10.1298 7.44666 9.24267 7.17881 8.72374C7.12099 8.62138 7.08945 8.50628 7.08702 8.38874C7.08702 8.28017 7.12023 8.17088 7.21238 8.0791L7.79809 7.46838C8.17523 7.08303 8.39273 6.74803 8.39273 6.36303C8.39273 6.06196 8.2588 5.73553 7.98273 5.34196L6.18273 2.80553C5.88988 2.40374 5.47988 2.22803 5.02773 2.22803C4.47523 2.22803 3.89773 2.4791 3.41238 2.9566C2.60023 3.73517 2.24023 4.69731 2.24023 5.76017C2.24023 8.16267 4.07345 11.0759 6.48416 13.4866Z" fill="white"/>
</svg>
